<?xml version="1.0" encoding="utf-8"?>
<!-- Generator: Adobe Illustrator 27.0.1, SVG Export Plug-In . SVG Version: 6.00 Build 0)  -->
<svg version="1.1" id="Layer_1" xmlns="http://www.w3.org/2000/svg" xmlns:xlink="http://www.w3.org/1999/xlink" x="0px" y="0px"
	 viewBox="0 0 1920 1080" style="enable-background:new 0 0 1920 1080;" xml:space="preserve">
<style type="text/css">
	.st0{fill:#5AE4A7;}
	.st1{opacity:0.7;fill:#FFFFFF;}
	.st2{fill:none;stroke:#1A2E35;stroke-linecap:round;stroke-linejoin:round;stroke-miterlimit:10;}
	.st3{fill:#1A2E35;stroke:#1A2E35;stroke-linecap:round;stroke-linejoin:round;stroke-miterlimit:10;}
	.st4{fill:#1A2E35;}
	.st5{fill:none;stroke:#1A2E35;stroke-width:2;stroke-miterlimit:10;}
	.st6{fill:#5AE4A7;stroke:#1A2E35;stroke-miterlimit:10;}
	.st7{fill:none;stroke:#1A2E35;stroke-width:0.5;stroke-miterlimit:10;}
	.st8{fill:#1A2E35;stroke:#1A2E35;stroke-miterlimit:10;}
	.st9{fill:none;stroke:#1A2E35;stroke-miterlimit:10;}
	.st10{fill:#FFFFFF;}
	.st11{fill:#DEDEDE;}
	.st12{fill:none;stroke:#1A2E35;stroke-width:0.8211;stroke-linecap:round;stroke-linejoin:round;stroke-miterlimit:10;}
	.st13{fill:#1A2E35;stroke:#1A2E35;stroke-width:0.7251;stroke-linecap:round;stroke-linejoin:round;stroke-miterlimit:10;}
	.st14{fill:#1A2E35;stroke:#1A2E35;stroke-width:0.8831;stroke-linecap:round;stroke-linejoin:round;stroke-miterlimit:10;}
	.st15{fill:none;stroke:#FFFFFF;stroke-miterlimit:10;}
	.st16{opacity:0.15;fill:#FFFFFF;}
	.st17{fill:none;stroke:#5AE4A7;stroke-width:2;stroke-miterlimit:10;}
	.st18{fill:#FFFFFF;stroke:#1A2E35;stroke-miterlimit:10;}
	.st19{fill:#737373;stroke:#1A2E35;stroke-miterlimit:10;}
</style>
<g>
	<path class="st0" d="M1872.77,412.06c-4.79-36.31-14.14-71.11-33.73-102.81c-36.42-58.93-101.85-94.52-168.27-112.58
		c-55.67-15.13-115.61-19.49-171.14-3.87c-60.95,17.15-112.09,56.66-166.98,87.64c-40.02,22.59-82.26,41.29-125.44,57.38
		c-34.95,13.02-79.36,20.32-108.09,45.05c-17.62,15.17-33.12,32.69-46.42,51.56c-53.62,76.05-71.09,173.22-62.81,263.92
		c5.77,63.2,23.63,127.14,63.68,177.2c56.2,70.24,152.67,104.85,243.7,96.13c103.31-9.9,201.27-70.01,304.02-55.59
		c51.14,7.18,100.09,32.76,151.53,28c50.71-4.69,94.12-38.62,124.71-78.26c24.53-31.79,40.86-70.23,42.37-110.24
		c1.64-43.33-18.52-82.84-28.63-124.21C1873.6,559.05,1882.41,485.08,1872.77,412.06z"/>
	<path class="st1" d="M1872.77,412.06c-4.79-36.31-14.14-71.11-33.73-102.81c-36.42-58.93-101.85-94.52-168.27-112.58
		c-55.67-15.13-115.61-19.49-171.14-3.87c-60.95,17.15-112.09,56.66-166.98,87.64c-40.02,22.59-82.26,41.29-125.44,57.38
		c-34.95,13.02-79.36,20.32-108.09,45.05c-17.62,15.17-33.12,32.69-46.42,51.56c-53.62,76.05-71.09,173.22-62.81,263.92
		c5.77,63.2,23.63,127.14,63.68,177.2c56.2,70.24,152.67,104.85,243.7,96.13c103.31-9.9,201.27-70.01,304.02-55.59
		c51.14,7.18,100.09,32.76,151.53,28c50.71-4.69,94.12-38.62,124.71-78.26c24.53-31.79,40.86-70.23,42.37-110.24
		c1.64-43.33-18.52-82.84-28.63-124.21C1873.6,559.05,1882.41,485.08,1872.77,412.06z"/>
</g>
<g>
	<g>
		
			<rect x="1625.65" y="745.27" transform="matrix(-1 -1.224647e-16 1.224647e-16 -1 3541.4167 1501.1803)" class="st2" width="290.12" height="10.64"/>
		
			<rect x="1639.1" y="756.22" transform="matrix(-1 -1.224647e-16 1.224647e-16 -1 3541.4167 1799.9436)" class="st2" width="263.21" height="287.51"/>
		<g>
			
				<rect x="1648.57" y="769.59" transform="matrix(-1 -1.224647e-16 1.224647e-16 -1 3541.7224 1601.569)" class="st2" width="244.58" height="62.38"/>
			
				<rect x="1759.05" y="795.04" transform="matrix(-1 -1.224647e-16 1.224647e-16 -1 3542.5657 1601.5688)" class="st3" width="24.46" height="11.49"/>
		</g>
		<g>
			
				<rect x="1648.57" y="848.39" transform="matrix(-1 -1.224647e-16 1.224647e-16 -1 3541.7224 1759.1689)" class="st2" width="244.58" height="62.38"/>
			
				<rect x="1759.05" y="873.84" transform="matrix(-1 -1.224647e-16 1.224647e-16 -1 3542.5657 1759.1687)" class="st3" width="24.46" height="11.49"/>
		</g>
		<g>
			
				<rect x="1648.57" y="927.56" transform="matrix(-1 -1.224647e-16 1.224647e-16 -1 3541.7224 1917.4983)" class="st2" width="244.58" height="62.38"/>
			
				<rect x="1759.05" y="953" transform="matrix(-1 -1.224647e-16 1.224647e-16 -1 3542.5657 1917.498)" class="st3" width="24.46" height="11.49"/>
		</g>
	</g>
	<g>
		<path class="st4" d="M1782.76,619.48c2.96,1.26,10.22,1.1,10.22,1.1c0.08,0-1.56-4.62-1.7-4.9c-1.59-3.24-6.62-8.59-10.72-8.05
			c-2.95,0.39-4.59,3.26-3.92,5.97C1777.32,616.35,1780.23,618.4,1782.76,619.48z"/>
		<path class="st4" d="M1856.12,621.03c0.06,0.04,1.32-4.69,1.36-5c0.51-3.56-0.66-10.72-4.38-12.47c-2.68-1.26-5.68,0.26-6.65,2.87
			c-1,2.67,0.27,5.94,1.76,8.19C1849.98,617.27,1856.12,621.03,1856.12,621.03z"/>
		<path class="st4" d="M1877.77,595.45c-4.11-0.43-8.99,5.05-10.49,8.33c-0.13,0.28-1.63,4.94-1.56,4.94c0,0,0.07,0,0.09,0
			c-0.78,0.86-1.6,1.79-2.48,2.82c-1.61,1.92-3.4,4.11-5.2,6.61c-1.8,2.5-3.68,5.27-5.39,8.35c-1.72,3.09-3.36,6.43-4.6,10.08
			c-0.01,0.04-0.02,0.09-0.04,0.13c0.02-1.18-0.03-4.47-0.07-4.73c-0.47-3.56-3.54-10.17-7.6-10.9c-2.93-0.53-5.41,1.71-5.64,4.48
			c-0.24,2.83,1.87,5.66,3.93,7.45c2.32,2.02,8.75,3.97,9.27,4.12c-1.15,3.49-2.03,7.16-2.72,10.93c-0.39,2.15-0.72,4.33-1.02,6.52
			c-0.02-1.02-0.04-1.93-0.05-2.06c-0.47-3.56-3.54-10.17-7.61-10.9c-2.93-0.53-5.41,1.71-5.64,4.48c-0.24,2.83,1.87,5.66,3.93,7.45
			c2.09,1.81,7.54,3.58,8.99,4.03c-0.11,0.84-0.22,1.68-0.33,2.52c-0.5,4.04-0.97,8.07-1.56,12c-0.21,1.39-0.47,2.75-0.72,4.11
			c-0.01-0.91-0.03-1.67-0.05-1.78c-0.47-3.56-3.54-10.17-7.61-10.9c-2.93-0.53-5.41,1.71-5.64,4.48c-0.24,2.83,1.87,5.66,3.93,7.45
			c1.99,1.73,7.01,3.41,8.73,3.95c-0.3,1.39-0.6,2.78-0.96,4.11c-0.27,0.9-0.46,1.79-0.77,2.68c-0.3,0.89-0.59,1.77-0.88,2.64
			c-0.62,1.66-1.25,3.38-1.9,4.98c-0.44,1.12-0.88,2.18-1.33,3.25c0.22-1.38,0.6-4.09,0.61-4.32c0.06-2.39-0.81-6.26-2.55-8.99
			c0.01-0.35-0.01-0.7-0.07-1.05c-0.45-2.74-3.1-4.78-5.98-4.04c-3.99,1.03-6.53,7.86-6.72,11.44c-0.01,0.21,0.13,2.52,0.25,3.98
			c-0.2-0.85-0.39-1.67-0.6-2.54c-0.42-1.72-0.89-3.42-1.39-5.26c-0.27-0.88-0.55-1.76-0.83-2.66c-0.26-0.89-0.64-1.81-0.96-2.72
			c-0.79-2.1-1.7-4.19-2.66-6.28c1.55-0.36,7.02-1.72,9.21-3.36c2.19-1.63,4.51-4.3,4.48-7.14c-0.02-2.78-2.32-5.19-5.28-4.87
			c-4.11,0.43-7.67,6.8-8.42,10.32c-0.05,0.22-0.29,2.8-0.4,4.22c-0.59-1.25-1.17-2.5-1.8-3.75c-1.84-3.6-3.81-7.19-5.76-10.77
			c-0.6-1.1-1.18-2.2-1.77-3.3c0.55-0.12,7.09-1.6,9.55-3.44c2.19-1.63,4.51-4.3,4.49-7.14c-0.02-2.78-2.32-5.19-5.28-4.87
			c-4.11,0.43-7.67,6.8-8.42,10.32c-0.06,0.26-0.4,3.98-0.44,4.93c-1.29-2.42-2.56-4.85-3.71-7.29c-1.59-3.37-2.96-6.76-4.03-10.14
			c0.26-0.06,7.09-1.57,9.61-3.45c2.19-1.63,4.51-4.3,4.48-7.14c-0.02-2.78-2.32-5.19-5.28-4.87c-4.11,0.43-7.67,6.8-8.42,10.32
			c-0.05,0.23-0.32,3.06-0.41,4.41c-0.13,0.01-0.11,0.01-0.23,0.02c-1.11-3.63-1.71-7.29-2.1-10.74c-0.23-2-0.34-3.92-0.4-5.79
			c1.3-0.15,7.24-0.92,9.7-2.37c2.36-1.39,4.96-3.8,5.26-6.62c0.29-2.77-1.72-5.4-4.7-5.41c-4.13-0.01-8.39,5.94-9.53,9.36
			c-0.06,0.19-0.48,2.14-0.76,3.57c-0.01-0.84-0.04-1.72-0.04-2.53c0.01-3.04,0.2-5.83,0.4-8.29c0.12-1.4,0.26-2.66,0.41-3.85
			c1.2-0.8,5.98-4.08,7.45-6.43c1.43-2.29,2.61-5.6,1.54-8.24c-1.05-2.59-4.09-4.02-6.73-2.69c-3.67,1.85-4.64,9.04-4.03,12.58
			c0.05,0.31,1.44,5,1.5,4.96c0,0,0.06-0.04,0.07-0.05c-0.16,1.13-0.32,2.35-0.47,3.69c-0.25,2.47-0.51,5.25-0.59,8.31
			c-0.08,3.05-0.08,6.37,0.24,9.86c0.32,3.5,0.84,7.17,1.88,10.88c0.01,0.04,0.03,0.08,0.04,0.13c-0.65-0.99-2.56-3.71-2.73-3.91
			c-2.41-2.72-8.72-6.58-12.52-5.01c-2.74,1.13-3.54,4.33-2.17,6.76c1.41,2.49,4.77,3.72,7.5,4.11c3.08,0.44,9.55-1.39,10.06-1.54
			c1.02,3.53,2.36,7.07,3.93,10.57c0.89,2.01,1.85,4,2.84,5.99c-0.59-0.84-1.12-1.59-1.21-1.69c-2.41-2.72-8.72-6.58-12.52-5.01
			c-2.74,1.13-3.54,4.33-2.17,6.76c1.4,2.49,4.77,3.72,7.5,4.11c2.77,0.39,8.32-1.06,9.78-1.46c0.39,0.76,0.77,1.52,1.16,2.28
			c1.87,3.63,3.76,7.25,5.5,10.85c0.61,1.27,1.17,2.54,1.73,3.81c-0.53-0.75-0.97-1.37-1.05-1.46c-2.41-2.72-8.72-6.58-12.52-5.01
			c-2.74,1.13-3.54,4.33-2.17,6.76c1.41,2.49,4.77,3.72,7.5,4.1c2.64,0.37,7.78-0.92,9.52-1.39c0.53,1.32,1.07,2.64,1.53,3.94
			c0.29,0.9,0.64,1.74,0.88,2.65c0.26,0.9,0.51,1.79,0.77,2.68c0.42,1.72,0.87,3.49,1.24,5.18c0.27,1.17,0.5,2.29,0.73,3.42
			c-0.6-1.27-1.81-3.73-1.94-3.93c-1.96-3.04-7.59-7.79-11.6-6.8c-2.88,0.72-4.18,3.75-3.19,6.36c1,2.67,4.14,4.38,6.77,5.16
			c2.9,0.86,9.33,0.07,10.13-0.03c0.38,1.87,0.74,3.69,1.05,5.41c0.68,3.78,1.2,7.17,1.6,10.04h-16.28v33.33h42.81v-33.33h-16.55
			c1.07-2.32,2.25-4.96,3.48-7.88c0.76-1.79,1.53-3.72,2.3-5.7c0.78,0.16,7.14,1.42,10.1,0.76c2.69-0.59,5.94-2.07,7.15-4.66
			c1.18-2.53,0.12-5.66-2.7-6.58c-3.92-1.28-9.9,3.05-12.09,5.94c-0.13,0.17-1.32,2.17-2.05,3.45c0.31-0.81,0.62-1.6,0.93-2.44
			c0.63-1.66,1.2-3.33,1.82-5.13c0.27-0.88,0.54-1.77,0.82-2.66c0.29-0.88,0.49-1.85,0.74-2.79c0.53-2.18,0.96-4.41,1.35-6.67
			c1.49,0.53,6.83,2.33,9.59,2.15c2.75-0.19,6.2-1.17,7.79-3.55c1.56-2.33,1-5.57-1.64-6.9c-3.67-1.84-10.26,1.55-12.87,4.09
			c-0.16,0.16-1.83,2.18-2.72,3.31c0.22-1.36,0.45-2.71,0.62-4.1c0.51-3.99,0.9-8.04,1.3-12.08c0.12-1.24,0.26-2.47,0.4-3.7
			c0.53,0.19,6.82,2.47,9.91,2.26c2.75-0.19,6.2-1.17,7.79-3.55c1.56-2.33,1-5.57-1.64-6.9c-3.67-1.84-10.26,1.55-12.87,4.09
			c-0.2,0.19-2.59,3.11-3.16,3.88c0.29-2.72,0.61-5.42,1.04-8.08c0.58-3.66,1.36-7.23,2.38-10.62c0.25,0.09,6.8,2.5,9.97,2.28
			c2.75-0.19,6.2-1.17,7.79-3.55c1.56-2.33,1-5.57-1.64-6.9c-3.67-1.84-10.26,1.55-12.87,4.09c-0.17,0.17-2,2.38-2.84,3.46
			c-0.12-0.06-0.09-0.05-0.21-0.11c1.14-3.63,2.71-7,4.33-10.09c0.94-1.79,1.94-3.45,2.95-5.04c1.17,0.57,6.56,3.12,9.44,3.23
			c2.75,0.11,6.29-0.5,8.14-2.7c1.81-2.15,1.63-5.43-0.85-7.03c-3.44-2.23-10.37,0.45-13.26,2.69c-0.16,0.12-1.61,1.53-2.66,2.57
			c0.47-0.71,0.94-1.46,1.4-2.13c1.73-2.53,3.47-4.75,5.03-6.7c0.9-1.1,1.73-2.08,2.52-2.99c1.45-0.02,7.3-0.2,9.85-1.37
			c2.49-1.14,5.35-3.27,5.95-6.05C1882.45,598.59,1880.73,595.76,1877.77,595.45z M1832.28,702.89c-1.49,3.33-2.9,6.29-4.15,8.81
			h-4.34c-0.47-2.97-1.09-6.51-1.9-10.47c-0.38-1.9-0.83-3.92-1.31-5.99c0.48-0.19,3.22-1.27,5.65-2.59
			c2.11,2.23,7.53,4.84,8.24,5.17C1833.73,699.57,1833,701.28,1832.28,702.89z"/>
	</g>
</g>
<g>
	<g>
		<line class="st5" x1="1016.42" y1="759.23" x2="1039.48" y2="974.25"/>
		<g>
			<g>
				<line class="st5" x1="1035.76" y1="933.1" x2="1025.31" y2="922.35"/>
				<path class="st6" d="M1028.49,925.57c0,0,0.3-4.75-4.16-8.63c-2.68-2.33-16.8-8.11-18.14-3.27
					C1004.73,918.93,1019.18,929.27,1028.49,925.57z"/>
				<line class="st7" x1="1028.49" y1="925.57" x2="1015.04" y2="917.42"/>
			</g>
			<g>
				<line class="st5" x1="1038.38" y1="957.55" x2="1027.93" y2="946.81"/>
				<path class="st6" d="M1031.11,950.03c0,0,0.3-4.75-4.16-8.63c-2.68-2.33-16.8-8.11-18.14-3.27
					C1007.35,943.39,1021.8,953.73,1031.11,950.03z"/>
				<line class="st7" x1="1031.11" y1="950.03" x2="1017.67" y2="941.87"/>
			</g>
			<g>
				<line class="st5" x1="1029.36" y1="873.43" x2="1018.91" y2="862.68"/>
				<path class="st6" d="M1022.09,865.9c0,0,0.3-4.75-4.16-8.63c-2.68-2.33-16.8-8.11-18.14-3.27
					C998.33,859.26,1012.78,869.6,1022.09,865.9z"/>
				<line class="st7" x1="1022.09" y1="865.9" x2="1008.64" y2="857.75"/>
			</g>
			<g>
				<line class="st5" x1="1031.99" y1="897.88" x2="1021.53" y2="887.13"/>
				<path class="st6" d="M1024.71,890.35c0,0,0.3-4.75-4.16-8.63c-2.68-2.33-16.8-8.11-18.14-3.27
					C1000.95,883.72,1015.4,894.05,1024.71,890.35z"/>
				<line class="st7" x1="1024.71" y1="890.35" x2="1011.27" y2="882.2"/>
			</g>
			<g>
				<line class="st5" x1="1025.1" y1="833.7" x2="1014.65" y2="822.96"/>
				<path class="st6" d="M1017.83,826.18c0,0,0.3-4.75-4.16-8.63c-2.68-2.33-16.8-8.11-18.14-3.27
					C994.07,819.54,1008.52,829.88,1017.83,826.18z"/>
				<line class="st7" x1="1017.83" y1="826.18" x2="1004.39" y2="818.02"/>
			</g>
			<g>
				<line class="st5" x1="1020.83" y1="793.8" x2="1010.37" y2="783.06"/>
				<path class="st6" d="M1013.55,786.28c0,0,0.3-4.75-4.16-8.63c-2.68-2.33-16.8-8.11-18.14-3.27
					C989.79,779.64,1004.24,789.98,1013.55,786.28z"/>
				<line class="st7" x1="1013.55" y1="786.28" x2="1000.11" y2="778.13"/>
			</g>
			<g>
				<line class="st5" x1="1034.01" y1="918.63" x2="1041.95" y2="906.02"/>
				<path class="st6" d="M1039.53,909.8c0,0-1.3-4.59,2.24-9.28c2.13-2.82,14.72-11.32,17.06-6.85
					C1061.37,898.53,1049.42,911.55,1039.53,909.8z"/>
				<line class="st7" x1="1039.53" y1="909.8" x2="1051.63" y2="898.54"/>
			</g>
			<g>
				<line class="st5" x1="1027.11" y1="854.28" x2="1035.05" y2="841.66"/>
				<path class="st6" d="M1032.63,845.45c0,0-1.3-4.59,2.24-9.28c2.13-2.82,14.72-11.32,17.06-6.85
					C1054.47,834.18,1042.52,847.2,1032.63,845.45z"/>
				<line class="st7" x1="1032.63" y1="845.45" x2="1044.73" y2="834.19"/>
			</g>
			<g>
				<line class="st5" x1="1024.07" y1="826" x2="1032.02" y2="813.38"/>
				<path class="st6" d="M1029.6,817.17c0,0-1.3-4.59,2.24-9.28c2.13-2.82,14.72-11.32,17.06-6.85
					C1051.44,805.9,1039.49,818.92,1029.6,817.17z"/>
				<line class="st7" x1="1029.6" y1="817.17" x2="1041.7" y2="805.91"/>
			</g>
			<g>
				<line class="st5" x1="1019.63" y1="784.54" x2="1027.57" y2="771.93"/>
				<path class="st6" d="M1025.15,775.71c0,0-1.3-4.59,2.24-9.28c2.13-2.82,14.72-11.32,17.06-6.85
					C1046.99,764.44,1035.04,777.46,1025.15,775.71z"/>
				<line class="st7" x1="1025.15" y1="775.71" x2="1037.25" y2="764.45"/>
				<path class="st6" d="M1016.23,758.03c0,0-1.3-4.59,2.24-9.28c2.13-2.82,14.72-11.32,17.06-6.85
					C1038.07,746.76,1026.12,759.78,1016.23,758.03z"/>
				<line class="st7" x1="1016.23" y1="758.03" x2="1028.33" y2="746.77"/>
				<path class="st6" d="M1016.93,758.52c0,0-4.83,0.78-9.25-3.14c-2.66-2.36-10.02-15.43-5.21-17.23
					C1007.7,736.2,1019.76,749.13,1016.93,758.52z"/>
				<line class="st7" x1="1016.93" y1="758.52" x2="1006.69" y2="745.62"/>
			</g>
		</g>
	</g>
	<g>
		<line class="st5" x1="1077.23" y1="788.84" x2="1054.31" y2="1003.87"/>
		<g>
			<g>
				<line class="st5" x1="1059.38" y1="962.86" x2="1051.42" y2="950.25"/>
				<path class="st6" d="M1053.85,954.04c0,0,1.3-4.59-2.25-9.28c-2.13-2.82-14.73-11.31-17.06-6.84
					C1032,942.78,1043.96,955.79,1053.85,954.04z"/>
				<line class="st7" x1="1053.85" y1="954.04" x2="1042.42" y2="943.37"/>
			</g>
			<g>
				<line class="st5" x1="1065.74" y1="903.18" x2="1057.78" y2="890.57"/>
				<path class="st6" d="M1060.21,894.36c0,0,1.3-4.59-2.25-9.28c-2.13-2.82-14.73-11.31-17.06-6.84
					C1038.36,883.1,1050.32,896.12,1060.21,894.36z"/>
				<line class="st7" x1="1060.21" y1="894.36" x2="1048.78" y2="883.69"/>
			</g>
			<g>
				<line class="st5" x1="1063.13" y1="927.64" x2="1055.18" y2="915.03"/>
				<path class="st6" d="M1057.6,918.82c0,0,1.3-4.59-2.25-9.28c-2.13-2.82-14.73-11.31-17.06-6.84
					C1035.76,907.56,1047.71,920.57,1057.6,918.82z"/>
				<line class="st7" x1="1057.6" y1="918.82" x2="1046.17" y2="908.15"/>
			</g>
			<g>
				<line class="st5" x1="1069.97" y1="863.46" x2="1062.02" y2="850.85"/>
				<path class="st6" d="M1064.45,854.63c0,0,1.3-4.59-2.25-9.28c-2.13-2.82-14.73-11.31-17.06-6.84
					C1042.6,843.38,1054.55,856.39,1064.45,854.63z"/>
				<line class="st7" x1="1064.45" y1="854.63" x2="1053.02" y2="843.96"/>
			</g>
			<g>
				<line class="st5" x1="1074.23" y1="823.56" x2="1066.27" y2="810.95"/>
				<path class="st6" d="M1068.7,814.74c0,0,1.3-4.59-2.25-9.28c-2.13-2.82-14.73-11.31-17.06-6.84
					C1046.85,803.48,1058.81,816.49,1068.7,814.74z"/>
				<line class="st7" x1="1068.7" y1="814.74" x2="1057.27" y2="804.06"/>
			</g>
			<g>
				<line class="st5" x1="1060.72" y1="948.35" x2="1071.16" y2="937.6"/>
				<path class="st6" d="M1067.99,940.82c0,0-0.3-4.75,4.16-8.63c2.68-2.33,16.8-8.12,18.14-3.28
					C1091.75,934.17,1077.3,944.51,1067.99,940.82z"/>
				<line class="st7" x1="1067.99" y1="940.82" x2="1082.22" y2="932.23"/>
			</g>
			<g>
				<line class="st5" x1="1067.58" y1="883.99" x2="1078.03" y2="873.24"/>
				<path class="st6" d="M1074.85,876.46c0,0-0.3-4.75,4.15-8.63c2.68-2.33,16.8-8.12,18.14-3.28
					C1098.61,869.81,1084.16,880.16,1074.85,876.46z"/>
				<line class="st7" x1="1074.85" y1="876.46" x2="1089.08" y2="867.87"/>
			</g>
			<g>
				<line class="st5" x1="1070.6" y1="855.71" x2="1081.04" y2="844.96"/>
				<path class="st6" d="M1077.87,848.18c0,0-0.3-4.75,4.15-8.63c2.68-2.33,16.8-8.12,18.14-3.28
					C1101.62,841.53,1087.18,851.88,1077.87,848.18z"/>
				<line class="st7" x1="1077.87" y1="848.18" x2="1092.09" y2="839.59"/>
			</g>
			<g>
				<line class="st5" x1="1075.02" y1="814.25" x2="1085.46" y2="803.5"/>
				<path class="st6" d="M1082.29,806.72c0,0-0.3-4.75,4.15-8.63c2.68-2.33,16.8-8.12,18.14-3.28
					C1106.04,800.07,1091.6,810.42,1082.29,806.72z"/>
				<line class="st7" x1="1082.29" y1="806.72" x2="1096.51" y2="798.13"/>
				<path class="st6" d="M1077.3,787.63c0,0-0.3-4.75,4.15-8.63c2.68-2.33,16.8-8.12,18.14-3.28
					C1101.05,780.98,1086.61,791.33,1077.3,787.63z"/>
				<line class="st7" x1="1077.3" y1="787.63" x2="1091.52" y2="779.04"/>
				<path class="st6" d="M1077.88,788.25c0,0-4.89-0.21-8.38-4.93c-2.1-2.84-6.54-17.11-1.45-17.9
					C1073.57,764.56,1082.63,779.62,1077.88,788.25z"/>
				<line class="st7" x1="1077.88" y1="788.25" x2="1070.59" y2="773.58"/>
			</g>
		</g>
	</g>
	<line class="st5" x1="1050.96" y1="701.28" x2="1050.96" y2="973.2"/>
	<g>
		<g>
			<line class="st5" x1="1051.18" y1="932.31" x2="1041.93" y2="920.57"/>
			<path class="st6" d="M1044.75,924.09c0,0,0.8-4.7-3.22-9c-2.42-2.59-15.85-9.77-17.7-5.09
				C1021.82,915.09,1035.1,926.83,1044.75,924.09z"/>
			<line class="st7" x1="1044.75" y1="924.09" x2="1032.25" y2="914.63"/>
		</g>
		<g>
			<line class="st5" x1="1051.18" y1="881.21" x2="1041.93" y2="869.47"/>
			<path class="st6" d="M1044.75,872.99c0,0,0.8-4.7-3.22-9c-2.42-2.59-15.85-9.77-17.7-5.09
				C1021.82,863.99,1035.1,875.73,1044.75,872.99z"/>
			<line class="st7" x1="1044.75" y1="872.99" x2="1032.25" y2="863.53"/>
		</g>
		<g>
			<line class="st5" x1="1051.18" y1="821.22" x2="1041.93" y2="809.47"/>
			<path class="st6" d="M1044.75,813c0,0,0.8-4.7-3.22-9c-2.42-2.59-15.85-9.77-17.7-5.09C1021.82,803.99,1035.1,815.74,1044.75,813
				z"/>
			<line class="st7" x1="1044.75" y1="813" x2="1032.25" y2="803.53"/>
		</g>
		<g>
			<line class="st5" x1="1051.18" y1="781.28" x2="1041.93" y2="769.53"/>
			<path class="st6" d="M1044.75,773.06c0,0,0.8-4.7-3.22-9c-2.42-2.59-15.85-9.77-17.7-5.09
				C1021.82,764.05,1035.1,775.8,1044.75,773.06z"/>
			<line class="st7" x1="1044.75" y1="773.06" x2="1032.25" y2="763.59"/>
		</g>
		<g>
			<line class="st5" x1="1051.18" y1="741.16" x2="1041.93" y2="729.42"/>
			<path class="st6" d="M1044.75,732.94c0,0,0.8-4.7-3.22-9c-2.42-2.59-15.85-9.77-17.7-5.09
				C1021.82,723.94,1035.1,735.68,1044.75,732.94z"/>
			<line class="st7" x1="1044.75" y1="732.94" x2="1032.25" y2="723.48"/>
		</g>
		<g>
			<line class="st5" x1="1050.98" y1="947.92" x2="1060.23" y2="936.18"/>
			<path class="st6" d="M1057.41,939.7c0,0-0.8-4.7,3.22-9c2.42-2.59,15.85-9.77,17.7-5.09
				C1080.34,930.7,1067.07,942.44,1057.41,939.7z"/>
			<line class="st7" x1="1057.41" y1="939.7" x2="1070.65" y2="929.72"/>
		</g>
		<g>
			<line class="st5" x1="1050.98" y1="866.64" x2="1060.23" y2="854.9"/>
			<path class="st6" d="M1057.41,858.42c0,0-0.8-4.7,3.22-9c2.42-2.59,15.85-9.77,17.7-5.09
				C1080.34,849.42,1067.07,861.16,1057.41,858.42z"/>
			<line class="st7" x1="1057.41" y1="858.42" x2="1070.65" y2="848.45"/>
		</g>
		<g>
			<line class="st5" x1="1050.98" y1="826.53" x2="1060.23" y2="814.79"/>
			<path class="st6" d="M1057.41,818.31c0,0-0.8-4.7,3.22-9c2.42-2.59,15.85-9.77,17.7-5.09
				C1080.34,809.31,1067.07,821.05,1057.41,818.31z"/>
			<line class="st7" x1="1057.41" y1="818.31" x2="1070.65" y2="808.33"/>
		</g>
		<g>
			<line class="st5" x1="1050.98" y1="773.51" x2="1060.23" y2="761.77"/>
			<path class="st6" d="M1057.41,765.29c0,0-0.8-4.7,3.22-9c2.42-2.59,15.85-9.77,17.7-5.09
				C1080.34,756.29,1067.07,768.03,1057.41,765.29z"/>
			<line class="st7" x1="1057.41" y1="765.29" x2="1070.65" y2="755.31"/>
		</g>
		<g>
			<line class="st5" x1="1050.98" y1="731.83" x2="1060.23" y2="720.08"/>
			<path class="st6" d="M1057.41,723.61c0,0-0.8-4.7,3.22-9c2.42-2.59,15.85-9.77,17.7-5.09
				C1080.34,714.6,1067.07,726.35,1057.41,723.61z"/>
			<line class="st7" x1="1057.41" y1="723.61" x2="1070.65" y2="713.63"/>
			<path class="st6" d="M1050.43,705.12c0,0-0.8-4.7,3.22-9c2.42-2.59,15.85-9.77,17.7-5.09
				C1073.35,696.12,1060.08,707.86,1050.43,705.12z"/>
			<line class="st7" x1="1050.43" y1="705.12" x2="1063.67" y2="695.14"/>
			<path class="st6" d="M1051.07,705.67c0,0-4.88,0.29-8.86-4.06c-2.39-2.61-8.32-16.36-3.34-17.66
				C1044.28,682.54,1054.88,696.62,1051.07,705.67z"/>
			<line class="st7" x1="1051.07" y1="705.67" x2="1042.27" y2="691.81"/>
		</g>
	</g>
	<polygon class="st8" points="1062.46,1043.73 1032.87,1043.73 1029.17,971 1066.15,971 	"/>
</g>
<g>
	<polyline class="st9" points="1188.59,486.85 1010.84,486.85 1010.84,211.43 1230.92,211.43 1230.92,486.85 1200.16,486.85 	"/>
	<rect x="1018.82" y="221.41" class="st9" width="204.12" height="255.45"/>
	<path class="st9" d="M1059.71,291.39c3.42,3.08,7.26,6.07,11.56,8.92c46.17,30.49,124.5,16.05,150.88,59.38"/>
	<path class="st9" d="M1032.53,222.46c0,0-5.37,34.24,21.43,63.24"/>
	<path class="st9" d="M1050.02,363.18c22.52-11.58,51.68-19.79,66.61,3.72c17.31,27.28-62.66,75.43-62.66,109.94"/>
	<path class="st9" d="M1019.34,382.95c0,0,10.27-8.35,24.45-16.4"/>
	<path class="st9" d="M1125.69,222.46c0,0,29.68,44.94,97.29,32.9"/>
	<path class="st9" d="M1134.57,266.6c0.13,1.05,0.2,2.12,0.2,3.21c0,14.62-12.18,26.48-27.21,26.48
		c-15.03,0-27.21-11.86-27.21-26.48c0-14.62,12.18-26.48,27.21-26.48c10.43,0,19.49,5.71,24.06,14.1"/>
	<path class="st9" d="M1202.37,305.52c0,6.87-5.72,12.44-12.78,12.44c-7.06,0-12.78-5.57-12.78-12.44c0-6.87,5.72-12.44,12.78-12.44
		C1196.65,293.08,1202.37,298.65,1202.37,305.52z"/>
	<path class="st9" d="M1202.54,389.43c7.3,1.85,13.99,5.19,19.7,9.67"/>
	<path class="st9" d="M1153.56,477.02c-10.54-9.39-17.15-22.89-17.15-37.89c0-28.36,23.62-51.36,52.77-51.36
		c1.02,0,2.04,0.03,3.04,0.08"/>
</g>
<g>
	<line class="st9" x1="1599.94" y1="1043.73" x2="1916.02" y2="1043.73"/>
	<line class="st9" x1="991.63" y1="1043.73" x2="1584.04" y2="1043.73"/>
</g>
<g>
	<rect x="1344.89" y="228.21" class="st10" width="401.22" height="723.4"/>
	<rect x="1344.89" y="828.24" class="st11" width="401.22" height="123.37"/>
	<g>
		<path class="st4" d="M1758.16,370.54c2.74,0,4.96-2.16,4.96-4.82v-48.24c0-2.66-2.22-4.82-4.96-4.82c-0.32,0-0.63,0.04-0.93,0.09
			v-90.22c0-17.18-14.31-31.1-31.95-31.1h-352.16c-17.65,0-31.95,13.92-31.95,31.1v728.05c0,17.18,14.31,31.1,31.95,31.1h352.16
			c17.65,0,31.95-13.92,31.95-31.1V507.65c0.3,0.06,0.61,0.09,0.93,0.09c2.74,0,4.96-2.16,4.96-4.82v-48.24
			c0-2.66-2.22-4.82-4.96-4.82c-0.32,0-0.63,0.04-0.93,0.09v-10.9c0.3,0.06,0.61,0.09,0.93,0.09c2.74,0,4.96-2.16,4.96-4.82v-48.24
			c0-2.66-2.22-4.82-4.96-4.82c-0.32,0-0.63,0.04-0.93,0.09v-10.9C1757.53,370.5,1757.84,370.54,1758.16,370.54z M1738.72,934.77
			h-379.06V245.09h379.06V934.77z"/>
		<g>
			<g>
				<rect x="1694.4" y="252.24" class="st12" width="31.43" height="16.77"/>
				<rect x="1694.4" y="252.24" class="st13" width="24.51" height="16.77"/>
				<rect x="1725.76" y="256.94" class="st13" width="4.43" height="7.39"/>
			</g>
			<g>
				<rect x="1368.19" y="257.45" class="st14" width="5.76" height="9.61"/>
				<rect x="1377.25" y="254.07" class="st14" width="5.76" height="12.99"/>
				<rect x="1386.3" y="250.08" class="st14" width="5.76" height="16.98"/>
			</g>
		</g>
		<g>
			<g>
				<rect x="1365.77" y="278.35" class="st0" width="364.01" height="93.1"/>
			</g>
			<line class="st15" x1="1457.76" y1="291.75" x2="1457.76" y2="360.11"/>
			<line class="st15" x1="1550.53" y1="291.75" x2="1550.53" y2="360.11"/>
			<line class="st15" x1="1643.3" y1="291.75" x2="1643.3" y2="360.11"/>
		</g>
	</g>
	<path class="st16" d="M1753.94,507.65c0.3,0.06,0.61,0.09,0.93,0.09c2.74,0,4.96-2.16,4.96-4.82v-17.28l-24.39,41.86v407.28h-237.3
		l-27.33,46.91h251.18c17.65,0,31.95-13.92,31.95-31.1V507.65z"/>
	<g>
		<g>
			<path class="st4" d="M1533.8,692.43c0-7.4,0-14.81,0-22.21l-0.03,0.03c3.78,0,7.56,0,11.34,0c0-3.77,0-7.41,0-11.12
				c-3.83,0-7.58,0-11.34,0l0.03,0.03c-0.01-3.71-0.02-7.41-0.03-11.12c7.58,0,15.16,0,22.85,0c0-3.75,0-7.39,0-11.04
				c3.83,0,7.55,0,11.37,0c0,3.69,0,7.33,0,10.98c3.85,0,7.59,0,11.41,0c0-7.42,0-14.78,0-22.13l-0.03,0.03
				c0.48-0.01,0.96-0.01,1.45-0.02c10.92-0.01,21.85-0.01,32.77-0.02c0,3.68,0,7.36,0,11.05c3.85,0,7.59,0,11.32,0
				c0-3.7,0-7.34,0-11.02c-3.83,0-7.59,0-11.34,0c0-3.68,0-7.37,0-11.15c-7.66,0-15.2,0-22.81,0c0-7.42,0-14.74,0-22.08
				c-11.41,0-22.75,0-34.2,0c0,3.71,0,7.35,0,11.06c-7.63,0-15.15,0-22.69,0c0,7.41,0,14.75,0,22.2c3.81,0,7.55,0,11.28,0
				c0,3.73,0,7.35,0,11.07c-3.8,0-7.54,0-11.33,0c0,3.76,0,7.43,0,11.09c-3.76,0-7.52,0-11.39,0c0-3.72,0-7.36,0-11.1
				c-11.44,0-22.78,0-34.17,0c0-3.72,0-7.34,0-11.06c11.34,0,22.68,0,34.11,0c0-29.62,0-59.14,0-88.76c3.87,0,7.66,0,11.44,0
				l-0.03-0.03c0.01,10.68,0.01,21.36,0.02,32.04c0,0.37,0,0.75,0,1.18c3.8,0,7.54,0,11.38,0c0-7.35,0-14.69,0-22.07
				c3.82,0,7.54,0,11.37,0c0,7.33,0,14.67,0,22.15c3.88,0,7.67,0,11.45,0l-0.03-0.03c0,3.66,0,7.32,0,11.08c19.02,0,37.96,0,56.97,0
				c0,3.72,0,7.34,0,11.07c3.81,0,7.56,0,11.42,0c0,3.79,0,7.47,0,11.15l0.03-0.03c-3.78,0-7.56,0-11.34,0c0,3.77,0,7.41,0,11.12
				c3.83,0,7.58,0,11.34,0l-0.03-0.03c0,7.36,0,14.71,0,22.21c3.86,0,7.64,0,11.42,0l-0.03-0.03c0,7.35,0,14.7,0,22.16
				c-3.77,0-7.51,0-11.32,0c0,7.43,0,14.77,0,22.24c3.78,0,7.56,0,11.34,0l-0.03-0.03c0,3.66,0,7.32,0,11.08c7.62,0,15.17,0,22.76,0
				c0,3.72,0,7.35,0,11.07c-11.33,0-22.67,0-34.12,0c0,7.44,0,14.78,0,22.18c-3.83,0-7.55,0-11.38,0c0-3.63,0-7.27,0-11.06
				c-7.69,0-15.27,0-22.85,0l0.03,0.03c0-3.66,0-7.32,0-11.08c-3.82,0-7.57,0-11.36,0c0-3.72,0-7.35,0-11.07c7.53,0,15.08,0,22.68,0
				c0-3.75,0-7.39,0-11.08c-18.94,0-37.86,0-56.88,0c0,3.63,0,7.27,0,11.03c-7.69,0-15.27,0-22.85,0L1533.8,692.43z M1602.15,659.16
				c0-3.68,0-7.36,0-11.05c-3.85,0-7.59,0-11.32,0c0,3.7,0,7.34,0,11.02c3.83,0,7.59,0,11.34,0c0,3.68,0,7.36,0,11.04
				c7.64,0,15.18,0,22.71,0c0-3.7,0-7.35,0-11.01C1617.26,659.16,1609.71,659.16,1602.15,659.16z M1579.33,659.21
				c-3.82,0-7.56,0-11.28,0c0,3.71,0,7.35,0,10.97c3.8,0,7.52,0,11.28,0C1579.33,666.51,1579.33,662.89,1579.33,659.21z
				 M1602.21,603.61c3.82,0,7.56,0,11.28,0c0-3.71,0-7.35,0-10.97c-3.8,0-7.52,0-11.28,0
				C1602.21,596.3,1602.21,599.92,1602.21,603.61z"/>
			<path class="st4" d="M1431.25,570.33c0-25.87,0-51.68,0-77.53c26.56,0,53.07,0,79.66,0c0,25.81,0,51.64,0,77.53
				C1484.4,570.33,1457.86,570.33,1431.25,570.33z M1442.67,503.88c0,18.51,0,36.94,0,55.35c19.01,0,37.94,0,56.87,0
				c0-18.48,0-36.89,0-55.35C1480.57,503.88,1461.65,503.88,1442.67,503.88z"/>
			<path class="st4" d="M1670.48,570.36c-26.58,0-53.09,0-79.66,0c0-25.85,0-51.65,0-77.53c26.52,0,53.05,0,79.66,0
				C1670.48,518.62,1670.48,544.45,1670.48,570.36z M1659.11,503.91c-19.02,0-37.96,0-56.87,0c0,18.5,0,36.93,0,55.35
				c18.99,0,37.91,0,56.87,0C1659.11,540.79,1659.11,522.38,1659.11,503.91z"/>
			<path class="st4" d="M1431.27,648.09c26.58,0,53.1,0,79.66,0c0,25.85,0,51.65,0,77.53c-26.52,0-53.06,0-79.66,0
				C1431.27,699.82,1431.27,673.99,1431.27,648.09z M1499.54,659.21c-19.01,0-37.95,0-56.87,0c0,18.5,0,36.93,0,55.35
				c18.99,0,37.91,0,56.87,0C1499.54,696.1,1499.54,677.69,1499.54,659.21z"/>
			<path class="st4" d="M1533.79,537.14c0-7.36,0-14.72,0-22.18c-3.82,0-7.56,0-11.36,0c0-7.42,0-14.74,0-22.14
				c18.93,0,37.87,0,56.87,0c0,7.33,0,14.67,0,22.09c-3.74,0-7.47,0-11.26,0c0,3.71,0,7.36,0,11.11c3.74,0,7.48,0,11.28,0
				c0,7.42,0,14.74,0,22.13c-3.74,0-7.49,0-11.34,0c0-3.65,0-7.29,0-11.01c-3.83,0-7.55,0-11.38,0c0-3.71,0-7.36,0-11.06
				c-3.83,0-7.55,0-11.38,0c0,3.62,0,7.27,0,11.03c-3.89,0-7.68,0-11.46,0L1533.79,537.14z M1545.22,514.87c3.82,0,7.56,0,11.28,0
				c0-3.71,0-7.35,0-10.98c-3.8,0-7.51,0-11.28,0C1545.22,507.56,1545.22,511.18,1545.22,514.87z"/>
			<path class="st4" d="M1488.17,592.57c0,3.66,0,7.32,0,11.08c7.62,0,15.17,0,22.76,0c0,3.72,0,7.35,0,11.07
				c-11.33,0-22.67,0-34.12,0c0,7.44,0,14.78,0,22.18c-15.22,0-30.34,0-45.54,0c0-7.33,0-14.67,0-22.07c3.73,0,7.47,0,11.29,0
				c0,3.64,0,7.26,0,10.96c7.61,0,15.16,0,22.85,0c0-11.06,0-22.14,0-33.22l-0.03,0.03c7.61,0,15.21,0,22.82,0L1488.17,592.57z"/>
			<path class="st4" d="M1533.77,692.4c0,3.66,0,7.32,0,11.09c3.81,0,7.56,0,11.38,0c0,3.72,0,7.35,0,11.07c3.81,0,7.56,0,11.37,0
				c0,3.75,0,7.39,0,11.09c-11.34,0-22.66,0-34.06,0c0-11.03,0-22.07,0-33.22c3.77,0,7.55,0,11.34,0L1533.77,692.4z"/>
			<path class="st4" d="M1465.41,592.57c-7.56,0-15.12,0-22.78,0c0,3.71,0,7.35,0,11.05c-3.83,0-7.55,0-11.35,0
				c0-7.31,0-14.65,0-22.06c11.31,0,22.65,0,34.1,0c0,3.67,0,7.36,0,11.04L1465.41,592.57z"/>
			<path class="st4" d="M1670.48,614.72c-3.79,0-7.51,0-11.3,0c0-7.36,0-14.68,0-22.11c-3.81,0-7.56,0-11.36,0
				c0-3.75,0-7.39,0-11.08c7.56,0,15.08,0,22.67,0C1670.48,592.58,1670.48,603.62,1670.48,614.72z"/>
			<path class="st4" d="M1488.2,592.6c0-3.66,0-7.32,0-11.04c7.58,0,15.12,0,22.72,0c0,3.63,0,7.28,0,11.02c-7.59,0-15.17,0-22.75,0
				C1488.17,592.57,1488.2,592.6,1488.2,592.6z"/>
			<path class="st4" d="M1647.77,636.97c0-3.66,0-7.31,0-11.04c3.78,0,7.52,0,11.32,0c0,3.63,0,7.27,0,11.01c-3.79,0-7.57,0-11.35,0
				L1647.77,636.97z"/>
			<path class="st4" d="M1659.2,648.09c3.77,0,7.49,0,11.28,0c0,3.65,0,7.29,0,10.99c-3.74,0-7.48,0-11.28,0
				C1659.2,655.44,1659.2,651.82,1659.2,648.09z"/>
			<path class="st4" d="M1567.98,570.41c0-3.66,0-7.31,0-11.04c3.78,0,7.52,0,11.32,0c0,3.63,0,7.27,0,11.01c-3.79,0-7.57,0-11.35,0
				L1567.98,570.41z"/>
			<path class="st4" d="M1533.79,670.22c-3.76,0-7.52,0-11.34,0c0-3.68,0-7.32,0-11.07c3.78,0,7.56,0,11.34,0l-0.03-0.03
				c0,3.71,0,7.41,0,11.12L1533.79,670.22z"/>
			<path class="st4" d="M1647.77,681.34c0-3.66,0-7.32,0-11.04c3.78,0,7.52,0,11.32,0c0,3.63,0,7.27,0,11.01c-3.79,0-7.57,0-11.35,0
				L1647.77,681.34z"/>
			<path class="st4" d="M1636.34,603.69c3.76,0,7.52,0,11.34,0c0,3.68,0,7.32,0,11.07c-3.78,0-7.56,0-11.34,0l0.03,0.03
				c0-3.71,0-7.41,0-11.12L1636.34,603.69z"/>
			<path class="st4" d="M1579.3,714.56c-3.79,0-7.51,0-11.28,0c0-3.66,0-7.28,0-10.98c3.73,0,7.47,0,11.28,0
				C1579.3,707.2,1579.3,710.85,1579.3,714.56z"/>
			<path class="st4" d="M1602.15,714.59c0,3.66,0,7.32,0,11.04c-3.78,0-7.52,0-11.32,0c0-3.63,0-7.27,0-11.01c3.79,0,7.57,0,11.35,0
				L1602.15,714.59z"/>
			<path class="st4" d="M1670.48,725.66c-3.79,0-7.51,0-11.28,0c0-3.66,0-7.28,0-10.98c3.72,0,7.46,0,11.28,0
				C1670.48,718.29,1670.48,721.94,1670.48,725.66z"/>
			<path class="st4" d="M1579.39,625.85c-3.76,0-7.52,0-11.34,0c0-3.68,0-7.32,0-11.02c3.73,0,7.47,0,11.32,0c0,3.69,0,7.37,0,11.05
				C1579.36,625.88,1579.39,625.85,1579.39,625.85z"/>
			<path class="st4" d="M1488.12,548.17c-11.39,0-22.71,0-34.08,0c0-11.06,0-22.07,0-33.16c11.33,0,22.67,0,34.08,0
				C1488.12,526.02,1488.12,537.06,1488.12,548.17z"/>
			<path class="st4" d="M1613.61,548.15c0-11.08,0-22.1,0-33.16c11.36,0,22.68,0,34.07,0c0,11.02,0,22.06,0,33.16
				C1636.36,548.15,1625.02,548.15,1613.61,548.15z"/>
			<path class="st4" d="M1454.04,703.45c0-11.08,0-22.1,0-33.16c11.36,0,22.68,0,34.07,0c0,11.02,0,22.06,0,33.16
				C1476.8,703.45,1465.46,703.45,1454.04,703.45z"/>
		</g>
		<g>
			<polyline class="st17" points="1464.34,466.52 1414.46,466.52 1414.46,520.09 			"/>
			<polyline class="st17" points="1645.8,466.52 1695.68,466.52 1695.68,520.09 			"/>
			<polyline class="st17" points="1464.34,748.65 1414.46,748.65 1414.46,695.08 			"/>
			<polyline class="st17" points="1645.8,748.65 1695.68,748.65 1695.68,695.08 			"/>
		</g>
	</g>
</g>
<g>
	<path class="st8" d="M1315.15,533.59h-21.84c-1.47,0-2.67-1.19-2.67-2.67v-50.13c0-1.47,1.19-2.67,2.67-2.67h21.84
		c1.47,0,2.67,1.19,2.67,2.67v50.13C1317.82,532.39,1316.62,533.59,1315.15,533.59z"/>
	<rect x="1293.05" y="483.02" class="st18" width="22.37" height="45.66"/>
	<g>
		<path class="st18" d="M1074.46,749.98c9.18,0.19,17.25-3.31,22.51-6.38c-0.43,12.34-0.77,21.69-0.77,21.69s2.19,3.72,3.28,5.32
			c1.09,1.6,10.39,6.92,11.48,11.7c1.09,4.79,6.01,7.45,5.47,14.36c-0.55,6.92-6.56-0.53-5.47,1.06c1.09,1.6,4.37,6.92,4.37,11.7
			c0,4.79-10.39,4.79-14.21,1.6c-3.83-3.19-16.4-10.64-17.49-17.56l-4.26-15.43L1074.46,749.98z"/>
		<path class="st18" d="M1097.16,788.33l2.65,11.61c0,0,8.61,6.45,9.28,10.96"/>
		<line class="st18" x1="1110.96" y1="797.74" x2="1107.1" y2="790.27"/>
	</g>
	<g>
		<g>
			<path class="st18" d="M1140.11,1033.62c0,0-3.11,24.89-0.69,27.92c2.42,3.03,6.22,6.73,11.75,7.4
				c5.53,0.67,14.86-2.35,14.86-2.35s9.33,2.69,19.36,1.68c10.02-1.01,16.59-4.71,17.28-9.42c0.69-4.71-7.95-6.73-12.79-11.77
				c-4.84-5.05-12.55-13.99-12.55-13.99l-1.97-6.53c0,0-11.75,5.72-19.36,6.06c-7.6,0.34-12.79-1.01-12.79-1.01L1140.11,1033.62z"/>
			<path class="st18" d="M1202.67,1058.85c0.09-0.59,0.03-1.13-0.15-1.65c-2.3,0.92-5.22,2.04-8.84,3.33
				c-10.37,3.7-15.55,0.67-20.74,0.67c-5.18,0-5.53,5.38-20.05,1.68c-9.48-2.42-13.05-5.54-14.4-7.43c0.03,2.97,0.28,5.29,0.92,6.08
				c2.42,3.03,6.22,6.73,11.75,7.4c5.53,0.67,14.86-2.36,14.86-2.36s9.33,2.69,19.36,1.68
				C1195.41,1067.26,1201.98,1063.56,1202.67,1058.85z"/>
		</g>
		<path class="st19" d="M1121.67,724.49c0,0-13.92,45.47-8.95,77.39c4.97,31.92,28.83,91.9,28.83,91.9s-2.98,22.25-2.98,29.99
			s-6.96,22.25-1.99,37.73s4.97,56.11,4.97,59.01c0,2.9-1.99,18.38-1.99,18.38s3.98,5.8,18.89,5.8c14.91,0,18.89-11.61,18.89-11.61
			s14.91-86.1,14.91-99.64s15.9-63.85,21.87-84.16c5.96-20.32,13.23-33.25,17.21-40.02s1.68-88.64,1.68-88.64l-113.31-9.67
			L1121.67,724.49z"/>
	</g>
	<g>
		<g>
			<path class="st18" d="M1199.91,1040.01c0,0,14.86,5.72,22.12,9.08c7.26,3.36,12.1,3.7,12.1,9.08c0,5.38-13.13,10.77-21.09,12.11
				c-7.95,1.35-20.74,1.01-22.12,1.35c-1.38,0.34-27.31,4.04-30.42-2.35c-3.11-6.39,0.35-28.26,0.35-28.26
				S1178.82,1044.72,1199.91,1040.01z"/>
			<path class="st18" d="M1190.92,1071.63c1.38-0.34,14.17,0,22.12-1.35c7.95-1.35,21.09-6.73,21.09-12.11
				c0-0.8-0.12-1.47-0.32-2.07c-2.73,1.55-6.27,3.38-10.39,5.1c-9.68,4.04-22.47,6.73-41.82,6.39c-10.5-0.18-17.72-1.55-22.15-2.77
				c0.2,1.81,0.53,3.36,1.07,4.45C1163.61,1075.67,1189.54,1071.97,1190.92,1071.63z"/>
		</g>
		<path class="st19" d="M1233.99,728.35c0,0,5.96,78.36-5.96,137.37c-11.93,59.01-31.81,139.31-32.8,143.18
			c-0.99,3.87,6.96,14.51,6.96,14.51v15.48c0,0-6.96,6.77-22.86,8.71c-15.9,1.93-20.87-2.9-20.87-2.9s-3.98-26.12-3.98-44.5
			c0-18.38,3.98-81.26,3.98-81.26s8.95-63.85,7.95-73.52c-0.99-9.67-3.98-39.66-3.98-39.66l-15.9-18.38"/>
	</g>
	<g>
		<g>
			<g>
				<path class="st18" d="M1066.92,713.62l31.27-5.35c-0.14,4.12,0.74-21.91,0.74-23.85c0-4.26,10.39-30.86,10.39-30.86
					s8.2,34.58,8.2,38.84c0,4.26-3.28,36.71,1.09,40.96c4.37,4.26,19.68,12.77,53.57,11.7c33.89-1.06,59.03-3.72,65.59-10.11
					c6.56-6.38-1.09-26.07-1.64-28.73c-0.55-2.66,8.75-72.35,8.75-72.35s36.62,37.24,58.49,31.92
					c21.86-5.32,11.48-88.31,11.48-88.31l1.09-23.94c0,0,7.11-17.56,7.11-20.22c0-2.66-7.11-21.81-7.11-21.81s-4.37-3.72-7.11,5.32
					c-2.73,9.04-3.28,14.9-3.28,14.9s-6.56,4.79-6.01,11.7c0.55,6.92,2.73,12.24,2.73,12.24l-14.76,46.82
					c0,0-16.4-18.09-17.49-21.28c-1.09-3.19-0.55-14.9-14.21-21.81c-13.67-6.92-41.54-7.45-41.54-7.45l-77.07,0.53
					c0,0-36.08,3.19-44.28,10.11c-8.2,6.92-33.34,94.7-33.34,108c0,4.15,2.24,17.03,5.35,32.99L1066.92,713.62z"/>
			</g>
		</g>
		<path class="st9" d="M1315.94,511.52c0,0-1.64,13.3-0.55,15.96c1.09,2.66,2.19,9.04,1.09,14.36"/>
	</g>
	<g>
		<path class="st6" d="M1303.37,665.8c21.86-5.32,11.48-88.31,11.48-88.31l0.25-5.37c-6.22-4.36-12.31-4.4-16.97-3.26l-10.6,33.64
			c0,0-16.4-18.09-17.49-21.28c-1.09-3.19-0.55-14.9-14.21-21.81c-13.67-6.92-41.54-7.45-41.54-7.45l-77.07,0.53
			c0,0-36.08,3.19-44.28,10.11c-8.2,6.92-33.34,94.7-33.34,108c0,7.89,8.08,47.24,14.88,79.39c9.18,0.19,17.25-3.31,22.51-6.38
			c0.81-23,1.97-56.41,1.97-59.18c0-4.26,10.39-30.86,10.39-30.86s8.2,34.58,8.2,38.84c0,4.26-3.28,36.71,1.09,40.96
			c4.37,4.26,19.68,12.77,53.57,11.7c33.89-1.06,59.03-3.72,65.59-10.11c6.56-6.38-1.09-26.07-1.64-28.73
			c-0.55-2.66,8.75-72.35,8.75-72.35S1281.5,671.12,1303.37,665.8z"/>
		<g>
			<polyline class="st9" points="1098.58,624.27 1109.32,653.56 1087.22,616.78 			"/>
			<line class="st9" x1="1092.52" y1="607.75" x2="1096.32" y2="618.11"/>
			<path class="st9" d="M1168.22,626.36c4.84,10.57,11.96,23.81,20.38,32.34"/>
			<path class="st9" d="M1161.43,609.69c0,0,1.49,4.36,4.16,10.68"/>
			<path class="st9" d="M1173.36,645.16c0,0,11.93,23.22,17.89,27.73"/>
			<line class="st9" x1="1263.58" y1="617.01" x2="1268.12" y2="612.91"/>
			<polyline class="st9" points="1256.19,610.98 1244.88,633.88 1259.47,620.71 			"/>
			<path class="st9" d="M1307.88,623.88c-0.66-4.51-20.36-21.39-20.36-21.39s20.36,7.84,25.67,14.94"/>
		</g>
	</g>
	<path class="st18" d="M1221.92,482.26c0,0,1.09,13.3,2.73,15.43c1.64,2.13,2.73,18.62,0,23.41s-4.37,10.64-6.01,12.24
		c-1.64,1.6-7.65,1.6-9.84,1.6c-2.19,0-26.78-1.06-26.78-1.06l0.55-33.52C1182.56,500.34,1188.58,475.34,1221.92,482.26z"/>
	<path class="st8" d="M1178.19,445.02c0,0-22.41,6.92-27.33,26.07c-4.92,19.15,10.93,40.96,10.93,40.96s4.37,15.43,8.2,18.62
		c3.83,3.19,19.13,0,24.05-1.06s15.85-29.79,15.85-29.79s0,6.92,3.28,6.92c3.28,0,2.73-9.04,2.73-10.64
		c0-1.6,15.31-12.77,15.31-31.92c0-19.15-16.95-27.66-32.8-26.6C1182.56,438.63,1178.19,445.02,1178.19,445.02z"/>
	<g>
		<path class="st6" d="M1224.65,550.89c0,0-3.28-11.17-4.92-12.77s-12.03-7.98-28.97-9.04c-16.95-1.06-42.09-0.53-44.28,0.53
			s-2.73,10.11-2.73,10.11s-7.11,6.38-8.75,10.11c-1.64,3.72-3.28,5.32,12.03,17.56c15.31,12.24,23.5,17.02,39.36,13.3
			c15.85-3.72,38.81-26.07,38.81-26.07L1224.65,550.89z"/>
		<path class="st9" d="M1185.55,558.42c15.22-4.64,30.9-13.92,30.9-13.92"/>
		<path class="st9" d="M1143.75,541.84c0,0,9.84,19.15,27.33,19.15c2.21,0,4.59-0.26,7.06-0.73"/>
	</g>
</g>
</svg>
